<svg xmlns="http://www.w3.org/2000/svg" xmlns:xlink="http://www.w3.org/1999/xlink" width="500" zoomAndPan="magnify" viewBox="0 0 375 374.999991" height="500" preserveAspectRatio="xMidYMid meet" version="1.0"><path fill="#e7e3dd" d="M 353.160156 322.203125 L 276.910156 190.160156 L 243.292969 248.457031 L 302.660156 351.3125 C 308.027344 360.613281 317.824219 365.90625 327.910156 365.90625 C 332.847656 365.90625 337.851562 364.617188 342.429688 361.972656 C 356.449219 353.886719 361.171875 336.148438 353.160156 322.203125 Z M 353.160156 322.203125 " fill-opacity="1" fill-rule="nonzero"/><path fill="#e7e3dd" d="M 299.65625 117.628906 L 267.324219 173.636719 L 233.636719 231.933594 L 181.5625 322.128906 C 165.96875 349.167969 136.859375 365.976562 105.671875 365.976562 C 73.984375 365.976562 45.585938 349.597656 29.707031 322.128906 C 13.828125 294.734375 13.828125 261.902344 29.707031 234.433594 L 120.835938 76.714844 C 130.277344 60.335938 147.230469 50.535156 166.113281 50.535156 C 184.996094 50.535156 201.949219 60.335938 211.460938 76.714844 L 214.753906 82.4375 L 224.195312 98.746094 L 190.503906 157.042969 L 166.113281 114.839844 L 80.277344 263.546875 C 72.625 276.78125 77.703125 288.511719 80.277344 292.945312 C 82.851562 297.378906 90.433594 307.679688 105.742188 307.679688 C 116.1875 307.679688 125.984375 302.03125 131.136719 292.945312 L 200.015625 173.636719 L 233.707031 115.339844 L 249.15625 88.515625 C 257.242188 74.570312 275.050781 69.777344 289 77.859375 C 302.949219 85.871094 307.738281 103.679688 299.65625 117.628906 Z M 299.65625 117.628906 " fill-opacity="1" fill-rule="nonzero"/><path fill="#e7e3dd" d="M 285.496094 48.390625 C 301.085938 83.511719 353.089844 61.980469 339.355469 26.070312 C 323.691406 -8.976562 271.6875 12.554688 285.496094 48.390625 Z M 285.496094 48.390625 " fill-opacity="1" fill-rule="nonzero"/><path fill="#e7e3dd" d="M 353.160156 322.203125 L 276.910156 190.160156 L 243.292969 248.457031 L 302.660156 351.3125 C 308.027344 360.613281 317.824219 365.90625 327.910156 365.90625 C 332.847656 365.90625 337.851562 364.617188 342.429688 361.972656 C 356.449219 353.886719 361.171875 336.148438 353.160156 322.203125 Z M 353.160156 322.203125 " fill-opacity="1" fill-rule="nonzero"/><path fill="#e7e3dd" d="M 299.65625 117.628906 L 267.324219 173.636719 L 233.636719 231.933594 L 181.5625 322.128906 C 165.96875 349.167969 136.859375 365.976562 105.671875 365.976562 C 73.984375 365.976562 45.585938 349.597656 29.707031 322.128906 C 13.828125 294.734375 13.828125 261.902344 29.707031 234.433594 L 120.835938 76.714844 C 130.277344 60.335938 147.230469 50.535156 166.113281 50.535156 C 184.996094 50.535156 201.949219 60.335938 211.460938 76.714844 L 214.753906 82.4375 L 224.195312 98.746094 L 190.503906 157.042969 L 166.113281 114.839844 L 80.277344 263.546875 C 72.625 276.78125 77.703125 288.511719 80.277344 292.945312 C 82.851562 297.378906 90.433594 307.679688 105.742188 307.679688 C 116.1875 307.679688 125.984375 302.03125 131.136719 292.945312 L 200.015625 173.636719 L 233.707031 115.339844 L 249.15625 88.515625 C 257.242188 74.570312 275.050781 69.777344 289 77.859375 C 302.949219 85.871094 307.738281 103.679688 299.65625 117.628906 Z M 299.65625 117.628906 " fill-opacity="1" fill-rule="nonzero"/><path fill="#e7e3dd" d="M 285.496094 48.390625 C 301.085938 83.511719 353.089844 61.980469 339.355469 26.070312 C 323.691406 -8.976562 271.6875 12.554688 285.496094 48.390625 Z M 285.496094 48.390625 " fill-opacity="1" fill-rule="nonzero"/></svg>